<?xml version="1.0" encoding="UTF-8" standalone="no"?>
<!DOCTYPE svg PUBLIC "-//W3C//DTD SVG 1.1//EN" "http://www.w3.org/Graphics/SVG/1.1/DTD/svg11.dtd">
<svg width="100%" height="100%" viewBox="0 0 566 397" version="1.1" xmlns="http://www.w3.org/2000/svg" xmlns:xlink="http://www.w3.org/1999/xlink" xml:space="preserve" xmlns:serif="http://www.serif.com/" style="fill-rule:evenodd;clip-rule:evenodd;stroke-linejoin:round;stroke-miterlimit:2;">
    <g transform="matrix(1,0,0,1,-234.368,-173.856)">
        <g transform="matrix(-1,-1.22465e-16,1.22465e-16,-1,1012,962)">
            <path d="M500,392C500,392 500,392 500,392C565.918,392 760.192,702 760.192,702C760.192,702 770.616,753.488 775.346,776.853C775.683,778.522 774.927,780.222 773.46,781.088C771.994,781.955 770.14,781.798 768.84,780.697C733.041,750.918 595.699,642 502,642C407.054,642 256.466,753.703 220.098,781.793C218.801,782.813 217.01,782.931 215.59,782.09C214.17,781.249 213.413,779.623 213.682,777.995C217.456,755.215 226.273,702 226.273,702C226.273,702 435.438,392 500,392Z" style="fill:rgb(124,45,18);"/>
        </g>
        <g transform="matrix(1,0,0,0.48307,2,260.645)">
            <g transform="matrix(1,0,0,1,-182,45.8127)">
                <path d="M660,280L572,226C572,226 577.746,134.596 611,166.073C620.219,174.799 660,280 660,280Z" style="fill:rgb(255,237,213);"/>
            </g>
            <g transform="matrix(-1,0,0,1,1200,45.8127)">
                <path d="M660,280L572,226C572,226 577.746,134.596 611,166.073C620.219,174.799 660,280 660,280Z" style="fill:rgb(255,237,213);"/>
            </g>
        </g>
        <g>
            <g transform="matrix(-0.229302,0.211351,0.653247,0.708728,299.309,30.9946)">
                <path d="M479.015,113.518C479.424,112.822 481.139,112.285 483.301,112.175C485.463,112.065 487.605,112.406 488.654,113.028C505.095,122.771 545.073,146.464 545.073,146.464C545.073,146.464 592.839,226.153 608.261,251.882C609.164,253.39 607.42,254.935 603.728,255.9C600.036,256.865 594.999,257.091 590.634,256.488C566.195,253.121 525.255,248.489 486.84,248.489C457.036,248.489 433.687,251.277 417.734,254.083C413.399,254.861 408.065,254.757 404.049,253.817C400.033,252.878 398.06,251.271 398.986,249.696C416.339,220.1 466.766,134.347 479.015,113.518Z" style="fill:rgb(255,237,213);"/>
            </g>
            <g transform="matrix(0.229302,0.211351,-0.653247,0.708728,733.236,31.0292)">
                <path d="M479.015,113.518C479.424,112.822 481.139,112.285 483.301,112.175C485.463,112.065 487.605,112.406 488.654,113.028C505.095,122.771 545.073,146.464 545.073,146.464C545.073,146.464 592.839,226.153 608.261,251.882C609.164,253.39 607.42,254.935 603.728,255.9C600.036,256.865 594.999,257.091 590.634,256.488C566.195,253.121 525.255,248.489 486.84,248.489C457.036,248.489 433.687,251.277 417.734,254.083C413.399,254.861 408.065,254.757 404.049,253.817C400.033,252.878 398.06,251.271 398.986,249.696C416.339,220.1 466.766,134.347 479.015,113.518Z" style="fill:rgb(255,237,213);"/>
            </g>
        </g>
    </g>
</svg>
